<svg width="1440" height="523" viewBox="0 0 1440 523" fill="none" xmlns="http://www.w3.org/2000/svg">
<path d="M1053.53 3.64627C1051.22 35.0179 1060.63 101.924 1116.74 118.578C1186.88 139.395 1258.71 156.621 1280.33 228.683C1297.62 286.332 1393.19 412.742 1438.81 468.741" stroke="#6198F0" stroke-opacity="0.1"/>
<path d="M1292.13 1C1291.21 9.34134 1294.7 27.1441 1316.01 31.6246C1342.65 37.2252 1369.94 41.8726 1378.06 61.0576C1384.56 76.4057 1420.73 110.113 1438 125.048" stroke="#6198F0" stroke-opacity="0.1"/>
<path d="M-1.59464 2.98486C-4.42797 37.7182 6.30537 111.849 71.9054 130.506C153.905 153.827 105 224.286 345 293.752C409.737 312.49 394.239 457.33 447.405 519.519" stroke="#6198F0" stroke-opacity="0.1"/>
<!-- <path d="M-1.88364 416.808C-2.69694 423.881 0.384022 438.978 19.2142 442.777C42.752 447.527 66.8639 451.468 74.04 467.736C79.7809 480.752 111.739 509.335 127 522" stroke="#6198F0" stroke-opacity="0.1"/> -->
<path d="M350.405 2.98486C347.572 37.7182 358.305 111.849 423.905 130.506C505.905 153.827 704 197.988 729 277.874C749 341.784 746.239 457.33 799.405 519.519" stroke="#6198F0" stroke-opacity="0.1"/>
</svg>
